<mxfile host="app.diagrams.net" agent="Mozilla/5.0 (Windows NT 10.0; Win64; x64) AppleWebKit/537.36 (KHTML, like Gecko) Chrome/138.0.0.0 Safari/537.36" version="28.0.7">
  <diagram name="Page-1" id="n6jOToWnfMJC4BQzsh08">
    <mxGraphModel dx="1042" dy="562" grid="1" gridSize="10" guides="1" tooltips="1" connect="1" arrows="1" fold="1" page="1" pageScale="1" pageWidth="850" pageHeight="1100" math="0" shadow="0">
      <root>
        <mxCell id="0" />
        <mxCell id="1" parent="0" />
        <mxCell id="Giycx4k-IKma78WDljVX-6" value="" style="rounded=0;whiteSpace=wrap;html=1;" parent="1" vertex="1">
          <mxGeometry x="100" y="104" width="580" height="547" as="geometry" />
        </mxCell>
        <mxCell id="Giycx4k-IKma78WDljVX-28" value="" style="ellipse;html=1;shape=startState;strokeColor=#330000;fillColor=#330000;" parent="1" vertex="1">
          <mxGeometry x="380" y="120" width="30" height="30" as="geometry" />
        </mxCell>
        <mxCell id="Giycx4k-IKma78WDljVX-29" value="" style="edgeStyle=orthogonalEdgeStyle;html=1;verticalAlign=bottom;endArrow=open;endSize=8;rounded=0;" parent="1" edge="1">
          <mxGeometry relative="1" as="geometry">
            <mxPoint x="395" y="186" as="targetPoint" />
            <mxPoint x="395" y="146" as="sourcePoint" />
          </mxGeometry>
        </mxCell>
        <mxCell id="Giycx4k-IKma78WDljVX-31" value="" style="edgeStyle=orthogonalEdgeStyle;html=1;verticalAlign=bottom;endArrow=open;endSize=8;rounded=0;" parent="1" edge="1">
          <mxGeometry relative="1" as="geometry">
            <mxPoint x="397" y="280" as="targetPoint" />
            <mxPoint x="397" y="240" as="sourcePoint" />
          </mxGeometry>
        </mxCell>
        <mxCell id="Giycx4k-IKma78WDljVX-34" value="View Brand" style="text;html=1;align=center;verticalAlign=middle;whiteSpace=wrap;rounded=0;" parent="1" vertex="1">
          <mxGeometry x="300" y="157" width="115" height="30" as="geometry" />
        </mxCell>
        <mxCell id="Giycx4k-IKma78WDljVX-35" value="Search Product" style="text;html=1;align=center;verticalAlign=middle;whiteSpace=wrap;rounded=0;" parent="1" vertex="1">
          <mxGeometry x="290" y="237" width="112" height="30" as="geometry" />
        </mxCell>
        <mxCell id="Giycx4k-IKma78WDljVX-36" value="" style="endArrow=classic;html=1;rounded=0;exitX=0;exitY=0.5;exitDx=0;exitDy=0;entryX=0.5;entryY=0;entryDx=0;entryDy=0;" parent="1" edge="1">
          <mxGeometry width="50" height="50" relative="1" as="geometry">
            <mxPoint x="346" y="304" as="sourcePoint" />
            <mxPoint x="245" y="390" as="targetPoint" />
            <Array as="points">
              <mxPoint x="245" y="304" />
            </Array>
          </mxGeometry>
        </mxCell>
        <mxCell id="Giycx4k-IKma78WDljVX-37" value="Product Not Available" style="text;html=1;align=center;verticalAlign=middle;whiteSpace=wrap;rounded=0;" parent="1" vertex="1">
          <mxGeometry x="226" y="277" width="120" height="30" as="geometry" />
        </mxCell>
        <mxCell id="Giycx4k-IKma78WDljVX-38" value="" style="endArrow=classic;html=1;rounded=0;exitX=1;exitY=0.5;exitDx=0;exitDy=0;entryX=0.5;entryY=1;entryDx=0;entryDy=0;" parent="1" source="_2vYyQ4lzHgkhlB2woRD-4" edge="1">
          <mxGeometry width="50" height="50" relative="1" as="geometry">
            <mxPoint x="300" y="427.5" as="sourcePoint" />
            <mxPoint x="401" y="328" as="targetPoint" />
            <Array as="points">
              <mxPoint x="400" y="415" />
            </Array>
          </mxGeometry>
        </mxCell>
        <mxCell id="Giycx4k-IKma78WDljVX-39" value="Search Another Product" style="text;html=1;align=center;verticalAlign=middle;whiteSpace=wrap;rounded=0;" parent="1" vertex="1">
          <mxGeometry x="294" y="412" width="152" height="30" as="geometry" />
        </mxCell>
        <mxCell id="Giycx4k-IKma78WDljVX-40" value="" style="endArrow=classic;html=1;rounded=0;exitX=1;exitY=0.5;exitDx=0;exitDy=0;" parent="1" edge="1">
          <mxGeometry width="50" height="50" relative="1" as="geometry">
            <mxPoint x="456" y="304" as="sourcePoint" />
            <mxPoint x="570" y="387" as="targetPoint" />
            <Array as="points">
              <mxPoint x="570" y="304" />
            </Array>
          </mxGeometry>
        </mxCell>
        <mxCell id="Giycx4k-IKma78WDljVX-42" value="Product Available" style="text;html=1;align=center;verticalAlign=middle;whiteSpace=wrap;rounded=0;" parent="1" vertex="1">
          <mxGeometry x="442" y="278" width="140" height="30" as="geometry" />
        </mxCell>
        <mxCell id="Giycx4k-IKma78WDljVX-43" value="" style="endArrow=classic;html=1;rounded=0;exitX=0.5;exitY=1;exitDx=0;exitDy=0;entryX=0.825;entryY=0.689;entryDx=0;entryDy=0;entryPerimeter=0;" parent="1" target="Giycx4k-IKma78WDljVX-47" edge="1">
          <mxGeometry width="50" height="50" relative="1" as="geometry">
            <mxPoint x="565" y="439" as="sourcePoint" />
            <mxPoint x="565" y="510" as="targetPoint" />
            <Array as="points">
              <mxPoint x="565" y="601" />
            </Array>
          </mxGeometry>
        </mxCell>
        <mxCell id="Giycx4k-IKma78WDljVX-47" value="â—‰" style="text;whiteSpace=wrap;fontSize=39;" parent="1" vertex="1">
          <mxGeometry x="381" y="570" width="40" height="45" as="geometry" />
        </mxCell>
        <mxCell id="Giycx4k-IKma78WDljVX-48" value="" style="endArrow=classic;html=1;rounded=0;exitX=0.5;exitY=1;exitDx=0;exitDy=0;" parent="1" edge="1">
          <mxGeometry width="50" height="50" relative="1" as="geometry">
            <mxPoint x="245" y="440" as="sourcePoint" />
            <mxPoint x="385" y="600" as="targetPoint" />
            <Array as="points">
              <mxPoint x="245" y="600" />
            </Array>
          </mxGeometry>
        </mxCell>
        <mxCell id="Giycx4k-IKma78WDljVX-50" value="Product" style="text;strokeColor=none;align=center;fillColor=none;html=1;verticalAlign=middle;whiteSpace=wrap;rounded=0;fontSize=14;" parent="1" vertex="1">
          <mxGeometry x="110" y="110" width="60" height="30" as="geometry" />
        </mxCell>
        <mxCell id="Giycx4k-IKma78WDljVX-52" value="" style="endArrow=none;html=1;rounded=0;exitX=0.004;exitY=0.084;exitDx=0;exitDy=0;exitPerimeter=0;entryX=1.073;entryY=1.273;entryDx=0;entryDy=0;entryPerimeter=0;" parent="1" edge="1">
          <mxGeometry width="50" height="50" relative="1" as="geometry">
            <mxPoint x="99.99999999999994" y="150" as="sourcePoint" />
            <mxPoint x="172.06000000000012" y="150" as="targetPoint" />
          </mxGeometry>
        </mxCell>
        <mxCell id="Giycx4k-IKma78WDljVX-54" value="" style="endArrow=none;html=1;rounded=0;" parent="1" edge="1">
          <mxGeometry width="50" height="50" relative="1" as="geometry">
            <mxPoint x="170" y="151" as="sourcePoint" />
            <mxPoint x="190" y="130" as="targetPoint" />
          </mxGeometry>
        </mxCell>
        <mxCell id="Giycx4k-IKma78WDljVX-55" value="" style="endArrow=none;html=1;rounded=0;" parent="1" edge="1">
          <mxGeometry width="50" height="50" relative="1" as="geometry">
            <mxPoint x="190" y="130" as="sourcePoint" />
            <mxPoint x="191" y="105" as="targetPoint" />
          </mxGeometry>
        </mxCell>
        <mxCell id="_2vYyQ4lzHgkhlB2woRD-2" value="View Brand" style="rounded=1;whiteSpace=wrap;html=1;" vertex="1" parent="1">
          <mxGeometry x="341" y="187" width="119" height="53" as="geometry" />
        </mxCell>
        <mxCell id="_2vYyQ4lzHgkhlB2woRD-3" value="Search Product" style="rounded=1;whiteSpace=wrap;html=1;" vertex="1" parent="1">
          <mxGeometry x="346" y="278" width="114" height="50" as="geometry" />
        </mxCell>
        <mxCell id="_2vYyQ4lzHgkhlB2woRD-4" value="Not Available" style="rounded=1;whiteSpace=wrap;html=1;" vertex="1" parent="1">
          <mxGeometry x="186" y="390" width="114" height="50" as="geometry" />
        </mxCell>
        <mxCell id="_2vYyQ4lzHgkhlB2woRD-5" value="View Product" style="rounded=1;whiteSpace=wrap;html=1;" vertex="1" parent="1">
          <mxGeometry x="510" y="387" width="114" height="50" as="geometry" />
        </mxCell>
      </root>
    </mxGraphModel>
  </diagram>
</mxfile>
